# xmcd
#
# Track frame offsets:
#	150
#	16741
#	31130
#	47985
#	63500
#	81499
#	98037
#	115265
#	131444
#	149679
#
# Disc length: 2219 seconds
#
# Revision: 1
# Processed by: cddbd v1.5.2PL0 Copyright (c) Steve Scherf et al.
# Submitted via: audiograbber 1.83.01
#
DISCID=8708a90a
DTITLE=Russell Hitchcock - Tennessee/ The Nashville Sessions CD2
DYEAR=2011
DGENRE=Country
TTITLE0=Far Enough Away From Colorado
TTITLE1=May The Best Man Win
TTITLE2=Couldn't Say I Love You Enough
TTITLE3=Cash's Last Days
TTITLE4=The Next Right Thing
TTITLE5=A Love Like This
TTITLE6=Like I'm Elvis
TTITLE7=All I've Got Left
TTITLE8=Hold Me Like You Love Me
TTITLE9=Right Kind Of Love
EXTD=
EXTT0=
EXTT1=
EXTT2=
EXTT3=
EXTT4=
EXTT5=
EXTT6=
EXTT7=
EXTT8=
EXTT9=
PLAYORDER=
